# xmcd
#
# Track frame offsets: 
#        150
#        22038
#        39442
#        66398
#        85449
#        103121
#        131033
#        143680
#        164784
#        179411
#
# Disc length: 2920 seconds
#
# Revision: 1
# Processed by: cddbd v1.5.2PL0 Copyright (c) Steve Scherf et al.
# Submitted via: ExactAudioCopy v1.0b4
#
DISCID=940b660a
DTITLE=Tinsley Ellis - Winning Hand
DYEAR=2018
DGENRE=Blues
TTITLE0=Sound Of A Broken Man
TTITLE1=Nothing But Fine
TTITLE2=Gamblin' Man
TTITLE3=I Got Mine
TTITLE4=Kiss This World
TTITLE5=Autumn Run
TTITLE6=Satisfied
TTITLE7=Don't Turn Off The Light
TTITLE8=Dixie Lullaby
TTITLE9=Saving Grace
EXTD=
EXTT0=
EXTT1=
EXTT2=
EXTT3=
EXTT4=
EXTT5=
EXTT6=
EXTT7=
EXTT8=
EXTT9=
PLAYORDER=
